<mxfile host="Electron" agent="Mozilla/5.0 (Windows NT 10.0; Win64; x64) AppleWebKit/537.36 (KHTML, like Gecko) draw.io/26.1.1 Chrome/132.0.6834.210 Electron/34.3.3 Safari/537.36" version="26.1.1">
  <diagram name="Page-1" id="GDExoDJ2zmKp9RXzO4np">
    <mxGraphModel dx="1098" dy="988" grid="1" gridSize="10" guides="1" tooltips="1" connect="1" arrows="1" fold="1" page="1" pageScale="1" pageWidth="827" pageHeight="1169" math="0" shadow="0">
      <root>
        <mxCell id="0" />
        <mxCell id="1" parent="0" />
        <mxCell id="ub7-VTVdIAtE-mxzcUHh-6" value="&lt;div&gt;&lt;b&gt;&lt;font style=&quot;font-size: 23px;&quot;&gt;&lt;br&gt;&lt;/font&gt;&lt;/b&gt;&lt;/div&gt;&lt;div&gt;&lt;br&gt;&lt;/div&gt;&lt;div&gt;&lt;br&gt;&lt;/div&gt;&lt;div&gt;&lt;b&gt;&lt;font style=&quot;font-size: 23px;&quot;&gt;&lt;br&gt;&lt;/font&gt;&lt;/b&gt;&lt;/div&gt;&lt;div&gt;&lt;b&gt;&lt;font style=&quot;font-size: 23px;&quot;&gt;&lt;br&gt;&lt;/font&gt;&lt;/b&gt;&lt;/div&gt;&lt;div&gt;&lt;br&gt;&lt;/div&gt;" style="whiteSpace=wrap;html=1;aspect=fixed;fillColor=#e1d5e7;strokeColor=#9673a6;" vertex="1" parent="1">
          <mxGeometry x="240" y="50" width="690" height="690" as="geometry" />
        </mxCell>
        <mxCell id="ub7-VTVdIAtE-mxzcUHh-1" value="Usuari" style="shape=umlActor;verticalLabelPosition=bottom;verticalAlign=top;html=1;outlineConnect=0;fontStyle=1;fontSize=23;" vertex="1" parent="1">
          <mxGeometry x="70" y="380" width="30" height="60" as="geometry" />
        </mxCell>
        <mxCell id="ub7-VTVdIAtE-mxzcUHh-2" value="Frontend" style="shape=note;whiteSpace=wrap;html=1;backgroundOutline=1;darkOpacity=0.05;fillColor=#ffe6cc;strokeColor=#d79b00;fontStyle=1;fontSize=23;" vertex="1" parent="1">
          <mxGeometry x="290" y="320" width="144" height="180" as="geometry" />
        </mxCell>
        <mxCell id="ub7-VTVdIAtE-mxzcUHh-3" value="" style="shape=flexArrow;endArrow=classic;startArrow=classic;html=1;rounded=0;exitX=0;exitY=0;exitDx=80;exitDy=65;exitPerimeter=0;fillColor=#fff2cc;strokeColor=#d6b656;entryX=0.014;entryY=0.494;entryDx=0;entryDy=0;entryPerimeter=0;" edge="1" parent="1" target="ub7-VTVdIAtE-mxzcUHh-8">
          <mxGeometry width="100" height="100" relative="1" as="geometry">
            <mxPoint x="434" y="409.5" as="sourcePoint" />
            <mxPoint x="554" y="409.5" as="targetPoint" />
          </mxGeometry>
        </mxCell>
        <mxCell id="ub7-VTVdIAtE-mxzcUHh-4" value="" style="shape=flexArrow;endArrow=classic;startArrow=classic;html=1;rounded=0;exitX=0;exitY=0;exitDx=80;exitDy=65;exitPerimeter=0;fillColor=#fff2cc;strokeColor=#d6b656;entryX=0;entryY=0.5;entryDx=0;entryDy=0;entryPerimeter=0;" edge="1" parent="1" target="ub7-VTVdIAtE-mxzcUHh-2">
          <mxGeometry width="100" height="100" relative="1" as="geometry">
            <mxPoint x="100" y="409.5" as="sourcePoint" />
            <mxPoint x="220" y="409.5" as="targetPoint" />
          </mxGeometry>
        </mxCell>
        <mxCell id="ub7-VTVdIAtE-mxzcUHh-5" value="BBDD" style="shape=cylinder3;whiteSpace=wrap;html=1;boundedLbl=1;backgroundOutline=1;size=15;fillColor=#d5e8d4;strokeColor=#82b366;fontStyle=1;fontSize=23;" vertex="1" parent="1">
          <mxGeometry x="780" y="110" width="97.5" height="130" as="geometry" />
        </mxCell>
        <mxCell id="ub7-VTVdIAtE-mxzcUHh-7" value="&lt;b&gt;&lt;font style=&quot;font-size: 26px;&quot;&gt;Contenidor&lt;/font&gt;&lt;/b&gt;" style="text;html=1;align=center;verticalAlign=middle;whiteSpace=wrap;rounded=0;" vertex="1" parent="1">
          <mxGeometry x="290" y="60" width="60" height="30" as="geometry" />
        </mxCell>
        <mxCell id="ub7-VTVdIAtE-mxzcUHh-8" value="Backend" style="shape=card;whiteSpace=wrap;html=1;fillColor=#f8cecc;strokeColor=#b85450;fontStyle=1;fontSize=23;" vertex="1" parent="1">
          <mxGeometry x="570" y="320" width="144" height="180" as="geometry" />
        </mxCell>
        <mxCell id="ub7-VTVdIAtE-mxzcUHh-9" value="" style="shape=flexArrow;endArrow=classic;startArrow=classic;html=1;rounded=0;exitX=0;exitY=0;exitDx=87;exitDy=0;exitPerimeter=0;fillColor=#fff2cc;strokeColor=#d6b656;entryX=0;entryY=0.5;entryDx=0;entryDy=0;entryPerimeter=0;" edge="1" parent="1" source="ub7-VTVdIAtE-mxzcUHh-8" target="ub7-VTVdIAtE-mxzcUHh-5">
          <mxGeometry width="100" height="100" relative="1" as="geometry">
            <mxPoint x="739.75" y="290.5" as="sourcePoint" />
            <mxPoint x="877.75" y="290" as="targetPoint" />
          </mxGeometry>
        </mxCell>
        <mxCell id="ub7-VTVdIAtE-mxzcUHh-10" value="Integracions" style="ellipse;shape=cloud;whiteSpace=wrap;html=1;fillColor=#dae8fc;strokeColor=#6c8ebf;fontStyle=1;fontSize=23;" vertex="1" parent="1">
          <mxGeometry x="560" y="780" width="217.5" height="145" as="geometry" />
        </mxCell>
        <mxCell id="ub7-VTVdIAtE-mxzcUHh-11" value="" style="shape=flexArrow;endArrow=classic;startArrow=classic;html=1;rounded=0;exitX=0.5;exitY=1;exitDx=0;exitDy=0;exitPerimeter=0;fillColor=#fff2cc;strokeColor=#d6b656;entryX=0.4;entryY=0.1;entryDx=0;entryDy=0;entryPerimeter=0;" edge="1" parent="1" source="ub7-VTVdIAtE-mxzcUHh-8" target="ub7-VTVdIAtE-mxzcUHh-10">
          <mxGeometry width="100" height="100" relative="1" as="geometry">
            <mxPoint x="667" y="330" as="sourcePoint" />
            <mxPoint x="810" y="155" as="targetPoint" />
          </mxGeometry>
        </mxCell>
      </root>
    </mxGraphModel>
  </diagram>
</mxfile>
